<svg width="416" height="156" viewBox="0 0 416 156" fill="none" xmlns="http://www.w3.org/2000/svg">
<path d="M212.521 148.998L211.56 147.903H215.041C215.993 147.903 216.705 147.696 217.181 147.279C217.669 146.85 217.911 146.254 217.911 145.489C217.911 144.715 217.669 144.116 217.181 143.699C216.705 143.282 215.993 143.075 215.041 143.075H211.56L212.521 141.962V148.998ZM210.366 153.321V141.162H215.143C216.169 141.162 217.049 141.335 217.779 141.683C218.519 142.031 219.09 142.529 219.488 143.175C219.886 143.824 220.084 144.592 220.084 145.486C220.084 146.38 219.886 147.148 219.488 147.797C219.09 148.446 218.522 148.944 217.779 149.289C217.049 149.637 216.172 149.81 215.143 149.81H211.56L212.521 148.75V153.321H210.366ZM202.522 153.321V142.517L203.037 143.072H198.694V141.162H208.511V143.072H204.168L204.665 142.517V153.321H202.522ZM194.84 148.11H188.489V146.182H194.84V148.11ZM188.671 153.321H186.517V141.162H188.671V153.321ZM194.672 141.162H196.827V153.321H194.672V141.162ZM177.562 151.428H184.11V153.321H175.407V141.162H183.88V143.056H177.562V151.428ZM177.398 146.217H183.168V148.076H177.398V146.217ZM171.445 155.996V152.766L171.927 153.321H169.571V151.412H173.435V155.999H171.445V155.996ZM161.596 153.321V141.162H163.717V151.412H169.571V141.162H171.711V153.321H161.596ZM148.538 140.347C147.544 140.347 146.79 140.128 146.284 139.685C145.788 139.247 145.533 138.626 145.521 137.826H147.03C147.042 138.256 147.173 138.585 147.428 138.817C147.694 139.049 148.062 139.165 148.538 139.165C149.014 139.165 149.385 139.049 149.648 138.817C149.924 138.585 150.067 138.256 150.079 137.826H151.573C151.561 138.626 151.303 139.243 150.794 139.685C150.283 140.124 149.532 140.347 148.538 140.347ZM143.381 153.321V141.162H145.503V149.794L151.737 141.162H153.742V153.321H151.621V144.705L145.387 153.321H143.381ZM137.979 153.321V141.162H140.101V153.321H137.979ZM131.53 151.584C132.359 151.584 132.999 151.381 133.454 150.976C133.918 150.572 134.151 149.979 134.151 149.205C134.151 148.44 133.924 147.885 133.472 147.537C133.02 147.179 132.374 146.997 131.533 146.997H128.764V151.584H131.53ZM131.979 145.279C133.361 145.279 134.427 145.602 135.178 146.251C135.929 146.9 136.306 147.872 136.306 149.17C136.306 150.537 135.89 151.572 135.061 152.28C134.244 152.977 133.098 153.321 131.629 153.321H126.637V141.162H128.758V145.279H131.979ZM121.378 148.11H115.027V146.182H121.378V148.11ZM115.21 153.321H113.055V141.162H115.21V153.321ZM121.211 141.162H123.365V153.321H121.211V141.162ZM106.076 151.584C106.905 151.584 107.545 151.381 108 150.976C108.464 150.572 108.698 149.979 108.698 149.205C108.698 148.44 108.47 147.885 108.018 147.537C107.566 147.179 106.92 146.997 106.079 146.997H103.311V151.584H106.076ZM106.525 145.279C107.908 145.279 108.973 145.602 109.724 146.251C110.475 146.9 110.853 147.872 110.853 149.17C110.853 150.537 110.436 151.572 109.607 152.28C108.79 152.977 107.644 153.321 106.175 153.321H101.183V141.162H103.305V145.279H106.525ZM87.775 153.494C87.5864 153.494 87.3979 153.475 87.2123 153.441C87.0238 153.406 86.8203 153.365 86.5988 153.318L86.7484 151.356C86.9041 151.403 87.0687 151.425 87.2453 151.425C87.7091 151.425 88.0802 151.227 88.3556 150.835C88.6309 150.431 88.8314 149.838 88.9511 149.064C89.0738 148.289 89.1547 147.333 89.1996 146.198L89.3641 141.159H97.9026V153.321H95.7807V142.517L96.2775 143.072H90.7558L91.2197 142.498L91.103 146.11C91.0701 147.314 90.9922 148.374 90.8695 149.289C90.7468 150.205 90.5613 150.973 90.3069 151.6C90.0645 152.215 89.7383 152.682 89.3282 153.008C88.9242 153.334 88.4035 153.494 87.775 153.494ZM76.0132 150.509L76.5939 148.737H82.8608L83.4414 150.509H76.0132ZM73.61 153.321L78.8325 141.162H80.9544L86.1948 153.321H83.9412L79.449 142.36H80.3109L75.8307 153.321H73.61ZM64.8531 146.355H67.7381C68.4355 146.355 68.9652 146.21 69.3303 145.919C69.6954 145.618 69.878 145.188 69.878 144.633C69.878 144.053 69.6954 143.62 69.3303 143.329C68.9652 143.04 68.4355 142.893 67.7381 142.893H64.8531V146.355ZM64.8531 151.584H68.1691C68.9203 151.584 69.4889 151.44 69.878 151.149C70.2641 150.848 70.4586 150.39 70.4586 149.775C70.4586 149.161 70.2641 148.715 69.878 148.436C69.4919 148.148 68.9233 148.001 68.1691 148.001H64.8531V151.584ZM62.7312 153.321V141.162H67.9207C69.2256 141.162 70.2431 141.435 70.9704 141.977C71.7006 142.51 72.0658 143.279 72.0658 144.288C72.0658 145.285 71.7186 146.054 71.0213 146.599C70.3239 147.132 69.4081 147.399 68.2679 147.399L68.5671 146.775C69.86 146.775 70.8596 147.047 71.5689 147.59C72.2752 148.135 72.6314 148.922 72.6314 149.951C72.6314 151.004 72.2603 151.832 71.521 152.434C70.7818 153.024 69.6865 153.321 68.2379 153.321H62.7312ZM53.7617 151.428H60.31V153.321H51.6069V141.162H60.0796V143.056H53.7617V151.428ZM53.5971 146.217H59.3673V148.076H53.5971V146.217ZM47.6444 155.996V152.766L48.1263 153.321H45.7709V151.412H49.6347V155.999H47.6444V155.996ZM37.7951 153.321V141.162H39.917V151.412H45.7709V141.162H47.9108V153.321H37.7951ZM32.5338 148.11H26.183V146.182H32.5338V148.11ZM26.3656 153.321H24.2108V141.162H26.3656V153.321ZM32.3692 141.162H34.524V153.321H32.3692V141.162ZM12.2515 150.509L12.8321 148.737H19.0991L19.6797 150.509H12.2515ZM9.84829 153.321L15.0707 141.162H17.1926L22.4301 153.321H20.1765L15.6843 142.36H16.5462L12.069 153.321H9.84829ZM4.06021 153.321V142.517L4.57497 143.072H0.232422V141.162H10.0488V143.072H5.70626L6.20305 142.517V153.321H4.06021Z" fill="#000044"/>
<path d="M415.999 86.224H336.69V109.74H415.999V125.417H306.762V86.224L321.726 70.5469H415.999V86.224Z" fill="#000044"/>
<path d="M248.403 94.0626H285.813V70.5469H300.777V125.417H285.813V109.74H248.403V125.417H225.957V70.5469H248.403V94.0626Z" fill="#000044"/>
<path d="M124.201 109.74H197.525V105.977H161.611V90.3001H197.525V86.224H124.201V70.5469H205.007L219.971 86.224V109.74L205.007 125.417H124.201V109.74Z" fill="#000044"/>
<path d="M80.8058 109.74H29.9281V86.224H80.8058V109.74ZM29.9281 70.5469L14.964 86.224V109.74H0V125.417H118.216V109.74H103.252V70.5469H29.9281Z" fill="#000044"/>
<path d="M372.604 15.6771V23.5157H401.036V15.6771H372.604ZM416 0V39.1928H372.604V54.87H350.158V0H416Z" fill="#000044"/>
<path d="M300.776 0H278.33V54.87H300.776V0Z" fill="#000044"/>
<path d="M344.172 0H278.33V15.6771H344.172V0Z" fill="#000044"/>
<path d="M344.172 39.1934H278.33V54.8705H344.172V39.1934Z" fill="#000044"/>
<path d="M337.29 0L344.173 15.6771L307.661 54.87L300.777 39.1928L337.29 0Z" fill="#000044"/>
<path d="M234.936 39.1928H197.526V15.6771H234.936V39.1928ZM197.526 0L182.562 15.6771V39.1928H167.598V54.87H272.346V39.1928H257.382V0H197.526Z" fill="#000044"/>
<path d="M103.253 39.1928L139.166 0.642759V0H161.612V54.87H139.166V23.9264L110.136 54.87H80.8066V0H103.253V39.1928Z" fill="#000044"/>
<path d="M74.8209 0V54.87H52.3748V23.2868L22.7461 54.87H0.150391L16.9101 37.9387L16.943 38.0327L52.3748 0H74.8209Z" fill="#000044"/>
</svg>
