<svg width="394" height="110" viewBox="0 0 394 110" fill="none" xmlns="http://www.w3.org/2000/svg">
<path d="M394 75.625H318.884V96.2501H394V110H290.539V75.625L304.712 61.875H394V75.625Z" fill="#000044"/>
<path d="M235.267 82.5H270.698V61.875H284.871V110H270.698V96.2501H235.267V110H214.008V61.875H235.267V82.5Z" fill="#000044"/>
<path d="M117.633 96.2501H187.079V92.9501H153.064V79.2H187.079V75.625H117.633V61.875H194.165L208.338 75.625V96.2501L194.165 110H117.633V96.2501Z" fill="#000044"/>
<path d="M76.5324 96.2501H28.3453V75.625H76.5324V96.2501ZM28.3453 61.875L14.1727 75.625V96.2501H0V110H111.964V96.2501H97.7914V61.875H28.3453Z" fill="#000044"/>
<path d="M352.9 13.75V20.625H379.828V13.75H352.9ZM394 0V34.3751H352.9V48.1251H331.641V0H394Z" fill="#000044"/>
<path d="M284.87 0H263.611V48.1251H284.87V0Z" fill="#000044"/>
<path d="M325.971 0H263.611V13.75H325.971V0Z" fill="#000044"/>
<path d="M325.971 34.375H263.611V48.125H325.971V34.375Z" fill="#000044"/>
<path d="M319.452 0L325.972 13.75L291.391 48.1251L284.871 34.3751L319.452 0Z" fill="#000044"/>
<path d="M222.511 34.3751H187.08V13.75H222.511V34.3751ZM187.08 0L172.907 13.75V34.3751H158.734V48.1251H257.943V34.3751H243.77V0H187.08Z" fill="#000044"/>
<path d="M97.7922 34.3751L131.807 0.563748V0H153.066V48.1251H131.807V20.9853L104.312 48.1251H76.5332V0H97.7922V34.3751Z" fill="#000044"/>
<path d="M70.8642 0V48.1251H49.6052V20.4243L21.5433 48.1251H0.142578L16.016 33.2751L16.0471 33.3576L49.6052 0H70.8642Z" fill="#000044"/>
</svg>
