<svg width="1440" height="540" viewBox="0 0 1440 540" fill="none" xmlns="http://www.w3.org/2000/svg">
<path d="M19.4398 527.122V474.784L22.0757 477.426H0V468.18H49.7528V477.426H27.677L30.1482 474.784V527.122H19.4398ZM48.7642 527.122L75.2881 468.18H85.9965L112.52 527.122H101.153L78.4182 473.959H82.8663L60.1316 527.122H48.7642ZM60.9553 513.418L63.9207 504.833H95.7163L98.6817 513.418H60.9553ZM162.932 468.18H173.805V527.122H162.932V468.18ZM132.454 527.122H121.581V468.18H132.454V527.122ZM163.756 501.861H131.631V492.45H163.756V501.861ZM190.444 527.122V468.18H201.153V517.876H230.807V468.18H241.68V527.122H190.444ZM240.362 540V524.315L242.833 526.957H230.971V517.711H250.576V540H240.362ZM270.51 492.615H299.67V501.696H270.51V492.615ZM271.334 517.876H304.447V527.122H260.296V468.18H303.294V477.426H271.334V517.876ZM316.803 527.122V468.18H343.162C349.752 468.18 354.859 469.501 358.648 472.143C362.272 474.784 364.249 478.417 364.249 483.37C364.249 488.158 362.437 491.955 358.977 494.597C355.518 497.238 350.74 498.394 344.974 498.394L346.457 495.422C353.047 495.422 358.154 496.743 361.613 499.385C365.238 502.026 367.05 505.824 367.05 510.777C367.05 515.895 365.238 519.857 361.449 522.829C357.659 525.636 352.223 527.122 344.809 527.122H316.803ZM327.511 518.702H344.315C348.104 518.702 351.07 518.041 353.047 516.555C355.024 515.069 356.012 512.923 356.012 509.951C356.012 506.979 355.024 504.833 353.047 503.512C351.07 502.026 348.269 501.366 344.315 501.366H327.511V518.702ZM327.511 493.276H342.174C345.633 493.276 348.434 492.615 350.246 491.129C352.058 489.644 353.047 487.662 353.047 484.856C353.047 482.049 352.058 479.902 350.246 478.582C348.434 477.261 345.633 476.435 342.174 476.435H327.511V493.276ZM371.828 527.122L398.351 468.18H409.06L435.583 527.122H424.216L401.482 473.959H405.93L383.195 527.122H371.828ZM384.019 513.418L386.984 504.833H418.78L421.745 513.418H384.019ZM443.656 527.947C442.668 527.947 441.679 527.947 440.855 527.617C439.867 527.452 438.878 527.287 437.725 526.957L438.549 517.381C439.373 517.546 440.196 517.711 441.02 517.711C443.327 517.711 445.303 516.72 446.621 514.904C447.939 512.923 449.092 510.116 449.587 506.319C450.246 502.522 450.575 497.899 450.905 492.45L451.728 468.015H495.056V526.957H484.348V474.619L486.819 477.261H458.812L461.119 474.454L460.46 491.955C460.295 497.734 459.966 502.852 459.307 507.31C458.648 511.767 457.659 515.4 456.506 518.537C455.188 521.508 453.541 523.82 451.564 525.306C449.587 526.792 446.786 527.947 443.656 527.947ZM538.713 488.158C545.633 488.158 551.069 489.809 554.858 492.946C558.647 496.083 560.624 500.871 560.624 507.145C560.624 513.749 558.483 518.867 554.364 522.169C550.245 525.471 544.479 527.287 536.901 527.287H511.695V468.345H522.404V488.323H538.713V488.158ZM536.407 518.702C540.526 518.702 543.82 517.711 546.127 515.73C548.433 513.749 549.587 510.942 549.587 507.145C549.587 503.512 548.433 500.705 546.127 499.054C543.82 497.238 540.525 496.413 536.242 496.413H522.239V518.702H536.407ZM613.013 468.18H623.886V527.122H613.013V468.18ZM582.7 527.122H571.827V468.18H582.7V527.122ZM614.001 501.861H581.876V492.45H614.001V501.861ZM667.708 488.158C674.627 488.158 680.064 489.809 684.018 492.946C687.807 496.083 689.784 500.871 689.784 507.145C689.784 513.749 687.642 518.867 683.523 522.169C679.405 525.471 673.639 527.287 666.061 527.287H640.855V468.345H651.563V488.323H667.708V488.158ZM665.402 518.702C669.685 518.702 672.815 517.711 675.122 515.73C677.428 513.749 678.581 510.942 678.581 507.145C678.581 503.512 677.428 500.705 675.122 499.054C672.815 497.238 669.52 496.413 665.237 496.413H651.234V518.702H665.402ZM698.021 527.122V468.18H708.729V527.122H698.021ZM725.368 527.122V468.18H736.077V509.951L767.708 468.18H777.922V527.122H767.214V485.351L735.583 527.122H725.368ZM751.563 464.218C746.456 464.218 742.667 463.227 740.195 461.081C737.724 458.934 736.406 455.962 736.406 452H743.985C743.985 454.146 744.644 455.632 745.961 456.788C747.279 457.944 749.256 458.439 751.563 458.439C754.034 458.439 755.846 457.944 757.164 456.788C758.647 455.632 759.306 454.146 759.306 452H766.884C766.884 455.797 765.566 458.934 762.93 461.081C760.459 463.227 756.67 464.218 751.563 464.218ZM817.79 527.122V468.18H828.498V517.876H858.152V468.18H869.025V527.122H817.79ZM867.707 540V524.315L870.179 526.957H858.317V517.711H877.922V540H867.707ZM897.856 492.615H927.18V501.696H897.856V492.615ZM898.679 517.876H931.793V527.122H887.641V468.18H930.64V477.426H898.679V517.876ZM985.335 468.18H996.208V527.122H985.335V468.18ZM954.857 527.122H943.984V468.18H954.857V527.122ZM986.159 501.861H954.033V492.45H986.159V501.861ZM1025.04 527.122V474.784L1027.67 477.426H1005.6V468.18H1055.35V477.426H1033.44L1035.91 474.784V527.122H1025.04ZM1064.91 527.122V468.18H1089.12C1094.4 468.18 1098.84 469.006 1102.47 470.657C1106.26 472.308 1109.06 474.784 1111.03 477.921C1113.01 481.058 1114 484.856 1114 489.148C1114 493.441 1113.01 497.238 1111.03 500.375C1109.06 503.512 1106.09 505.989 1102.47 507.64C1098.84 509.291 1094.4 510.116 1089.12 510.116H1071L1075.94 504.998V527.122H1064.91ZM1075.78 506.154L1070.84 500.871H1088.46C1093.24 500.871 1096.87 499.88 1099.34 497.899C1101.81 495.752 1102.96 492.946 1102.96 489.148C1102.96 485.351 1101.64 482.544 1099.34 480.398C1096.87 478.417 1093.24 477.426 1088.46 477.426H1070.84L1075.78 471.977V506.154Z" fill="#000044"/>
<mask id="mask0_377_8" style="mask-type:luminance" maskUnits="userSpaceOnUse" x="1220" y="225" width="220" height="175">
<path d="M1440 225H1220V400H1440V225Z" fill="white"/>
</mask>
<g mask="url(#mask0_377_8)">
<path d="M1295 225H1220V400H1295V225Z" fill="#000044"/>
<path d="M1440 225H1220V275H1440V225Z" fill="#000044"/>
<path d="M1440 350H1220V400H1440V350Z" fill="#000044"/>
<path d="M1417 225L1440 275L1318 400L1295 350L1417 225Z" fill="#000044"/>
</g>
<path fill-rule="evenodd" clip-rule="evenodd" d="M880 275L930 225H980H1200V275H980V350H1200V400H980H880V350V275Z" fill="#000044"/>
<mask id="mask1_377_8" style="mask-type:luminance" maskUnits="userSpaceOnUse" x="610" y="225" width="250" height="175">
<path d="M860 225H610V400H860V225Z" fill="white"/>
</mask>
<g mask="url(#mask1_377_8)">
<path fill-rule="evenodd" clip-rule="evenodd" d="M810 400H785L685 300V400H610V225H685L810 350V225H860V400H810Z" fill="#000044"/>
</g>
<path fill-rule="evenodd" clip-rule="evenodd" d="M340 275L390 225H590V275V300V350V400H515V350H390V400H340V350V300V275ZM515 275H390V300H515V275Z" fill="#000044"/>
<path fill-rule="evenodd" clip-rule="evenodd" d="M270 225L320 275V350V400H270H75H0V350V275V225H270ZM270 275H75V350H270V275Z" fill="#000044"/>
<path fill-rule="evenodd" clip-rule="evenodd" d="M1240 50V175H1315V50H1440V0H1315H1290L1240 50Z" fill="#000044"/>
<mask id="mask2_377_8" style="mask-type:luminance" maskUnits="userSpaceOnUse" x="1000" y="0" width="220" height="175">
<path d="M1220 0H1000V175H1220V0Z" fill="white"/>
</mask>
<g mask="url(#mask2_377_8)">
<path d="M1075 0H1000V175H1075V0Z" fill="#000044"/>
<path d="M1220 0H1000V50H1220V0Z" fill="#000044"/>
<path d="M1220 125H1000V175H1220V125Z" fill="#000044"/>
<path d="M1197 0L1220 50L1098 175L1075 125L1197 0Z" fill="#000044"/>
</g>
<path fill-rule="evenodd" clip-rule="evenodd" d="M930 0L980 50V125V175H930H805H730V125V50V0H805H930ZM930 50H805V125H930V50Z" fill="#000044"/>
<path fill-rule="evenodd" clip-rule="evenodd" d="M460 50L510 0H710V50V75V125V175H635V125H510V175H460V125V75V50ZM635 50H510V75H635V50Z" fill="#000044"/>
<mask id="mask3_377_8" style="mask-type:luminance" maskUnits="userSpaceOnUse" x="220" y="0" width="220" height="175">
<path d="M440 0H220V175H440V0Z" fill="white"/>
</mask>
<g mask="url(#mask3_377_8)">
<path d="M295 0H220V175H295V0Z" fill="#000044"/>
<path d="M440 0H220V50H440V0Z" fill="#000044"/>
<path d="M440 125H220V175H440V125Z" fill="#000044"/>
<path d="M417 0L440 50L318 175L295 125L417 0Z" fill="#000044"/>
</g>
<path fill-rule="evenodd" clip-rule="evenodd" d="M75 0H0V125V175H75H200V125H75V0Z" fill="#000044"/>
</svg>
