<svg width="394" height="110" viewBox="0 0 394 110" fill="none" xmlns="http://www.w3.org/2000/svg">
<path d="M333.239 61.4585H353.725V109.259H333.239V61.4585Z" fill="#000044"/>
<path d="M393.332 61.4585V75.1158H333.239V61.4585H393.332Z" fill="#000044"/>
<path d="M393.332 95.6019V109.259H333.239V95.6019H393.332Z" fill="#000044"/>
<path d="M387.049 61.4585L393.332 75.1158L360.008 109.259L353.725 95.6019L387.049 61.4585Z" fill="#000044"/>
<path fill-rule="evenodd" clip-rule="evenodd" d="M240.369 75.1158L254.027 61.4585H327.776V75.1158H267.684V95.6019H327.776V109.259H267.684H240.369V95.6019V75.1158Z" fill="#000044"/>
<path fill-rule="evenodd" clip-rule="evenodd" d="M221.249 109.259H214.42L187.106 81.9442V109.259H166.62V61.4585H187.106L221.249 95.6019V61.4585H234.907V109.259H221.249Z" fill="#000044"/>
<path fill-rule="evenodd" clip-rule="evenodd" d="M140.671 75.1158H106.527V81.9442H140.671V75.1158ZM92.8702 75.1158L106.527 61.4585H161.157V109.259H140.671V95.6019H106.527V109.259H92.8702V95.6019V81.9442V75.1158Z" fill="#000044"/>
<path fill-rule="evenodd" clip-rule="evenodd" d="M73.7496 75.1158H20.4861V95.6019H73.7496V75.1158ZM73.7496 61.4585L87.4069 75.1158V109.259H0V95.6019V75.1158V61.4585H73.7496Z" fill="#000044"/>
<path fill-rule="evenodd" clip-rule="evenodd" d="M338.702 13.6575V47.8008H359.188V13.6575H393.332V0.000213623H359.188H352.36L338.702 13.6575Z" fill="#000044"/>
<path d="M273.147 0.000213623H293.633V47.8008H273.147V0.000213623Z" fill="#000044"/>
<path d="M333.239 0.000213623V13.6575H273.147V0.000213623H333.239Z" fill="#000044"/>
<path d="M333.239 34.1436V47.8008H273.147V34.1436H333.239Z" fill="#000044"/>
<path d="M326.957 0.000213623L333.239 13.6575L299.915 47.8008L293.633 34.1436L326.957 0.000213623Z" fill="#000044"/>
<path fill-rule="evenodd" clip-rule="evenodd" d="M254.027 13.6575H219.883V34.1436H254.027V13.6575ZM254.027 0.000213623L267.684 13.6575V47.8008H199.397V34.1436V13.6575V0.000213623H219.883H254.027Z" fill="#000044"/>
<path fill-rule="evenodd" clip-rule="evenodd" d="M173.448 13.6575H139.305V20.4863H173.448V13.6575ZM125.648 13.6575L139.305 0.000213623H193.934V47.8008H173.448V34.1436H139.305V47.8008H125.648V34.1436V20.4863V13.6575Z" fill="#000044"/>
<path d="M60.0924 0.000213623H80.5785V47.8008H60.0924V0.000213623Z" fill="#000044"/>
<path d="M120.185 0.000213623V13.6575H60.0924V0.000213623H120.185Z" fill="#000044"/>
<path d="M120.185 34.1436V47.8008H60.0924V34.1436H120.185Z" fill="#000044"/>
<path d="M113.902 0.000213623L120.185 13.6575L86.8608 47.8008L80.5785 34.1436L113.902 0.000213623Z" fill="#000044"/>
<path fill-rule="evenodd" clip-rule="evenodd" d="M20.4861 0H0V47.8006H54.6295V34.1434H20.4861V0Z" fill="#000044"/>
</svg>
