<svg width="8897" height="825" viewBox="0 0 8897 825" fill="none" xmlns="http://www.w3.org/2000/svg">
<path d="M0 206.089L294.422 412.177L588.844 206.089V0L294.422 206.089L0 0V206.089Z" fill="#66CCFF"/>
<path d="M1030.52 824.355V618.266L736.094 412.178L441.672 618.266V824.355L736.094 618.266L1030.52 824.355Z" fill="#66CCFF"/>
<path d="M1311 206.089V0H1899.84V206.089L1605.42 412.177H1311L1605.42 206.089H1311Z" fill="#FF6163"/>
<path d="M1752.67 824.355V412.178L2047.09 618.266V412.178H2341.52V618.266L2047.09 824.355H1752.67Z" fill="#FF6163"/>
<path d="M2622 206.089L2916.42 0V206.089H3210.84V412.177H2622V206.089Z" fill="#66CC11"/>
<path d="M3063.67 618.266L3358.09 412.178L3652.51 618.266H3358.09V824.355H3063.67V618.266Z" fill="#66CC11"/>
<path d="M8160.42 206.089V0H8454.84V412.177H8160.42L7866 206.089V0L8160.42 206.089Z" fill="#8866FF"/>
<path d="M8896.52 412.176V618.264H8602.09V824.353H8307.67V618.264L8602.09 412.176H8896.52Z" fill="#8866FF"/>
<path d="M7291.09 618.264L6996.67 412.176H7291.09L7585.52 618.264H7291.09L7585.52 824.353H7291.09L6996.67 618.264H7291.09Z" fill="#FF8812"/>
<path d="M6849.42 206.089H7143.84L6996.67 309.133L6849.42 412.177H6555L6849.42 206.089H6555L6821.18 0H7143.84L6849.42 206.089Z" fill="#FF8812"/>
<path d="M5832.84 0V206.089L5538.42 412.177V206.089L5244 412.177V206.089H5538.42L5244 0H5538.42V206.089L5832.84 0Z" fill="#2188FF"/>
<path d="M5685.67 618.264V412.176L5980.09 618.264V412.176H6274.51L5980.09 618.264H6274.51L5980.09 824.353H5685.67L5980.09 618.264H5685.67Z" fill="#2188FF"/>
<path d="M4087.27 0L4227.42 103.655L4381.69 0H4521.84V206.089L4227.42 412.177L3933 206.089V0H4087.27Z" fill="#FF77AA"/>
<path d="M4528.94 412.178L4669.09 515.833L4823.37 412.178H4963.52V618.266L4669.09 824.355L4374.67 618.266V412.178H4528.94Z" fill="#FF77AA"/>
</svg>
